<svg xmlns="http://www.w3.org/2000/svg" viewBox="0 0 3737 721"><path fill="#000000" fill-rule="evenodd" d="M3.5,0.0 24.0,22.5 48.0,43.5 77.0,65.5 127.0,96.5 214.0,139.5 329.0,185.5 390.0,217.5 426.0,243.5 451.5,269.0 467.5,291.0 481.0,317.5 483.5,316.0 487.5,300.0 479.5,277.0 463.5,186.0 464.5,169.0 471.0,159.5 503.0,142.5 656.0,88.5 740.0,56.5 761.0,49.5 769.0,49.5 776.0,52.5 783.5,62.0 785.5,74.0 784.0,85.5 776.0,76.5 767.0,74.5 617.0,121.5 497.5,155.0 501.0,156.5 559.0,146.5 805.0,91.5 814.0,91.5 826.5,101.0 829.5,110.0 896.5,526.0 898.5,549.0 895.5,557.0 887.0,565.5 876.0,569.5 591.0,619.5 541.0,627.5 534.5,626.0 528.5,581.0 552.5,538.0 564.5,507.0 578.5,462.0 600.5,376.0 617.5,329.0 631.5,304.0 659.0,274.5 676.0,264.5 690.0,260.5 703.0,260.5 705.5,258.0 695.0,239.5 675.0,228.5 666.0,226.5 644.0,228.5 622.0,217.5 601.0,216.5 581.0,222.5 536.0,242.5 517.0,246.5 494.0,246.5 492.5,248.0 511.0,256.5 530.0,256.5 549.0,251.5 592.0,231.5 600.0,229.5 620.0,229.5 627.0,232.5 636.0,241.5 666.0,238.5 674.0,240.5 687.5,249.0 685.0,251.5 664.0,257.5 652.0,264.5 635.5,279.0 619.5,300.0 608.5,320.0 596.5,349.0 572.5,426.0 557.5,464.0 538.5,501.0 509.5,544.0 477.5,582.0 457.0,601.5 418.0,633.5 375.0,661.5 338.0,680.5 291.0,699.5 243.0,711.5 205.0,717.5 204.0,714.5 268.0,671.5 306.0,640.5 325.5,622.0 352.5,591.0 366.5,570.0 377.5,543.0 381.5,516.0 377.5,491.0 362.5,466.0 349.0,453.5 334.0,443.5 298.0,427.5 225.0,404.5 194.0,392.5 161.0,374.5 142.0,359.5 119.5,337.0 103.5,316.0 89.5,292.0 90.0,288.5 93.0,288.5 109.0,301.5 129.0,313.5 168.0,331.5 195.0,340.5 278.0,361.5 330.5,380.0 302.0,360.5 261.0,342.5 178.0,311.5 137.0,290.5 113.0,274.5 77.5,242.0 58.5,218.0 39.5,184.0 27.5,153.0 27.5,148.0 30.0,147.5 46.0,164.5 71.0,184.5 87.0,195.5 123.0,214.5 185.0,239.5 267.0,266.5 325.5,293.0 309.0,277.5 284.0,261.5 256.0,247.5 180.0,217.5 137.0,196.5 105.0,176.5 77.0,154.5 47.5,123.0 25.5,90.0 8.5,47.0 0.0,5.5Z M2118.0,516.5 2098.0,516.5 2079.0,511.5 2064.0,502.5 2045.5,481.0 2036.5,460.0 2030.5,428.0 2030.5,401.0 2035.5,373.0 2041.5,356.0 2054.5,335.0 2067.0,323.5 2081.0,315.5 2096.0,310.5 2122.0,309.5 2143.0,315.5 2156.0,322.5 2157.5,321.0 2157.5,226.0 2159.0,224.5 2204.0,225.5 2211.5,231.0 2214.5,237.0 2214.5,485.0 2216.5,510.0 2212.0,512.5 2171.0,512.5 2164.5,507.0 2162.5,496.0 2160.0,495.5 2139.0,510.5 2118.0,516.5Z M1101.0,512.5 1000.0,512.5 998.5,511.0 998.5,243.0 1001.0,241.5 1058.0,238.5 1089.0,238.5 1124.0,241.5 1146.0,248.5 1160.0,256.5 1171.5,267.0 1180.5,282.0 1184.5,301.0 1182.5,331.0 1169.5,352.0 1149.5,367.0 1173.0,380.5 1184.5,393.0 1190.5,405.0 1195.5,431.0 1194.5,449.0 1190.5,464.0 1181.5,481.0 1162.0,497.5 1136.0,507.5 1101.0,512.5Z M2294.0,512.5 2263.0,512.5 2261.5,511.0 2261.5,243.0 2268.0,240.5 2286.0,239.5 2345.0,239.5 2370.0,243.5 2398.0,257.5 2409.5,269.0 2416.5,281.0 2423.5,305.0 2423.5,336.0 2420.5,352.0 2406.5,378.0 2396.0,388.5 2375.0,400.5 2346.0,406.5 2298.0,406.5 2295.5,409.0 2296.5,511.0 2294.0,512.5Z M3545.0,516.5 3527.0,516.5 3511.0,510.5 3497.5,499.0 3492.5,489.0 3489.5,476.0 3489.5,345.0 3486.0,342.5 3463.0,343.5 3460.5,341.0 3460.5,321.0 3463.0,317.5 3484.0,317.5 3489.5,315.0 3488.5,268.0 3498.0,261.5 3516.0,256.5 3522.5,258.0 3522.5,314.0 3525.0,316.5 3570.0,316.5 3571.5,318.0 3572.5,339.0 3570.0,343.5 3526.0,342.5 3522.5,345.0 3522.5,466.0 3524.5,476.0 3530.0,483.5 3543.0,488.5 3557.0,486.5 3572.0,479.5 3580.5,500.0 3578.0,505.5 3565.0,512.5 3545.0,516.5Z M2346.5,378.0 2371.0,368.5 2377.5,362.0 2383.5,351.0 2389.5,324.0 2387.5,306.0 2383.5,294.0 2369.0,276.5 2351.0,269.5 2336.0,267.5 2298.0,268.5 2296.5,270.0 2296.5,377.0 2298.0,378.5 2346.5,378.0Z M1095.5,349.0 1110.0,344.5 1116.5,340.0 1122.5,332.0 1124.5,325.0 1124.5,306.0 1120.5,296.0 1114.0,289.5 1099.0,283.5 1058.0,283.5 1056.5,286.0 1057.5,349.0 1095.5,349.0Z M1998.0,512.5 1948.0,512.5 1944.5,510.0 1943.5,379.0 1937.5,366.0 1932.0,360.5 1925.0,357.5 1908.0,357.5 1897.0,361.5 1886.5,370.0 1882.5,378.0 1882.5,511.0 1878.0,512.5 1827.0,512.5 1825.5,511.0 1824.5,320.0 1827.0,314.5 1870.0,314.5 1876.5,322.0 1877.5,329.0 1881.0,330.5 1905.0,315.5 1923.0,310.5 1941.0,309.5 1968.0,315.5 1985.5,328.0 1996.5,346.0 2001.5,376.0 2001.5,511.0 1998.0,512.5Z M1320.0,517.5 1300.0,516.5 1280.0,512.5 1252.0,498.5 1236.5,484.0 1227.5,471.0 1219.5,453.0 1216.5,439.0 1216.5,390.0 1223.5,365.0 1229.5,352.0 1237.0,341.5 1259.0,322.5 1271.0,316.5 1294.0,310.5 1330.0,311.5 1350.0,317.5 1362.0,324.5 1375.5,337.0 1383.5,348.0 1389.5,361.0 1394.5,380.0 1395.5,425.0 1392.0,427.5 1275.0,426.5 1272.5,429.0 1276.5,445.0 1283.5,457.0 1296.0,467.5 1308.0,472.5 1328.0,473.5 1341.0,471.5 1354.0,467.5 1372.0,457.5 1379.5,458.0 1391.5,493.0 1390.5,495.0 1380.0,502.5 1358.0,511.5 1320.0,517.5Z M1715.0,516.5 1674.0,514.5 1661.0,510.5 1641.0,499.5 1626.5,486.0 1618.5,475.0 1610.5,458.0 1606.5,442.0 1604.5,400.0 1608.5,378.0 1618.5,353.0 1626.5,342.0 1641.0,328.5 1660.0,317.5 1680.0,311.5 1723.0,311.5 1741.0,316.5 1759.0,325.5 1781.5,348.0 1790.5,366.0 1795.5,384.0 1797.5,400.0 1795.5,442.0 1789.5,462.0 1783.5,474.0 1777.5,483.0 1755.0,503.5 1732.0,513.5 1715.0,516.5Z M2508.0,516.5 2479.0,514.5 2462.0,506.5 2452.5,498.0 2441.5,476.0 2440.5,452.0 2442.5,443.0 2452.5,424.0 2468.0,410.5 2478.0,405.5 2509.0,397.5 2551.0,393.5 2552.5,392.0 2552.5,369.0 2550.5,360.0 2542.0,346.5 2526.0,340.5 2496.0,341.5 2460.0,355.5 2449.5,333.0 2471.0,320.5 2484.0,316.5 2509.0,312.5 2526.0,312.5 2549.0,316.5 2564.0,323.5 2575.5,335.0 2581.5,347.0 2586.5,368.0 2586.5,482.0 2590.0,488.5 2605.5,492.0 2604.5,510.0 2603.0,512.5 2595.0,515.5 2576.0,514.5 2562.0,506.5 2554.0,494.5 2530.0,510.5 2508.0,516.5Z M2981.0,595.5 2951.0,595.5 2949.5,594.0 2948.5,318.0 2966.0,315.5 2977.0,316.5 2979.5,321.0 2980.5,334.0 2983.0,334.5 2998.0,322.5 3013.0,315.5 3029.0,312.5 3058.0,315.5 3071.0,321.5 3083.0,330.5 3096.5,347.0 3102.5,360.0 3108.5,382.0 3110.5,402.0 3110.5,427.0 3106.5,454.0 3101.5,471.0 3091.5,488.0 3075.0,504.5 3063.0,511.5 3040.0,516.5 3027.0,516.5 3008.0,512.5 2987.0,499.5 2982.5,499.0 2982.5,594.0 2981.0,595.5Z M3236.0,516.5 3201.0,514.5 3191.0,511.5 3172.0,500.5 3153.5,480.0 3143.5,457.0 3138.5,435.0 3137.5,407.0 3141.5,380.0 3149.5,359.0 3159.5,342.0 3176.0,326.5 3193.0,317.5 3221.0,312.5 3243.0,313.5 3257.0,316.5 3276.0,326.5 3288.5,338.0 3298.5,352.0 3304.5,365.0 3309.5,381.0 3312.5,409.0 3308.5,449.0 3300.5,471.0 3293.5,483.0 3283.0,495.5 3270.0,505.5 3255.0,512.5 3236.0,516.5Z M2698.0,516.5 2671.0,516.5 2661.0,514.5 2645.0,509.5 2623.5,498.0 2623.5,494.0 2634.0,472.5 2667.0,487.5 2694.0,490.5 2711.0,485.5 2718.5,480.0 2723.5,471.0 2724.5,453.0 2720.5,445.0 2714.0,438.5 2706.0,433.5 2665.0,418.5 2648.0,409.5 2636.5,398.0 2629.5,385.0 2628.5,358.0 2638.5,336.0 2658.0,320.5 2681.0,313.5 2708.0,313.5 2726.0,316.5 2752.5,330.0 2752.5,334.0 2742.0,353.5 2707.0,339.5 2687.0,339.5 2671.0,345.5 2664.5,352.0 2661.5,359.0 2662.5,375.0 2669.0,383.5 2684.0,392.5 2708.0,399.5 2733.0,411.5 2748.5,425.0 2758.5,445.0 2757.5,472.0 2746.5,494.0 2734.0,505.5 2724.0,510.5 2698.0,516.5Z M2857.0,516.5 2830.0,516.5 2809.0,512.5 2790.0,504.5 2779.5,497.0 2789.0,471.5 2820.0,486.5 2840.0,490.5 2857.0,489.5 2868.0,485.5 2875.5,480.0 2879.5,474.0 2880.5,452.0 2873.0,440.5 2857.0,431.5 2811.0,413.5 2795.5,401.0 2785.5,384.0 2784.5,358.0 2787.5,348.0 2794.5,336.0 2810.0,322.5 2824.0,316.5 2839.0,313.5 2866.0,313.5 2877.0,315.5 2897.0,322.5 2908.5,330.0 2908.5,334.0 2898.0,354.5 2880.0,344.5 2868.0,340.5 2845.0,339.5 2832.0,342.5 2822.5,350.0 2818.5,357.0 2818.5,373.0 2825.0,383.5 2837.0,390.5 2868.0,400.5 2888.0,410.5 2904.5,425.0 2913.5,442.0 2913.5,471.0 2902.5,494.0 2895.0,501.5 2878.0,511.5 2857.0,516.5Z M3379.0,512.5 3351.0,512.5 3349.5,511.0 3349.5,343.0 3347.5,320.0 3350.0,316.5 3356.0,315.5 3376.0,315.5 3379.5,324.0 3379.5,337.0 3382.0,340.5 3394.0,326.5 3409.0,316.5 3420.0,313.5 3445.0,314.5 3448.5,317.0 3449.5,321.0 3444.5,346.0 3442.0,348.5 3438.0,348.5 3433.0,345.5 3419.0,344.5 3405.0,349.5 3392.5,361.0 3383.5,379.0 3383.5,510.0 3379.0,512.5Z M3672.0,516.5 3650.0,516.5 3623.0,511.5 3607.0,504.5 3596.5,496.0 3596.5,492.0 3607.0,471.5 3631.0,484.5 3648.0,489.5 3663.0,490.5 3684.0,485.5 3693.5,477.0 3697.5,468.0 3697.5,454.0 3690.0,441.5 3675.0,432.5 3637.0,418.5 3620.0,408.5 3606.5,394.0 3601.5,382.0 3601.5,357.0 3610.5,336.0 3624.0,323.5 3636.0,317.5 3654.0,313.5 3683.0,313.5 3699.0,316.5 3708.0,319.5 3725.5,331.0 3715.0,353.5 3690.0,342.5 3678.0,339.5 3661.0,339.5 3644.0,345.5 3634.5,359.0 3634.5,372.0 3637.5,379.0 3643.0,384.5 3655.0,391.5 3691.0,403.5 3705.0,410.5 3722.5,426.0 3730.5,442.0 3730.5,471.0 3727.5,481.0 3719.5,494.0 3707.0,505.5 3697.0,510.5 3672.0,516.5Z M1470.0,596.5 1442.0,596.5 1425.0,592.5 1418.5,588.0 1417.5,574.0 1420.5,555.0 1423.0,552.5 1453.0,552.5 1463.0,547.5 1474.5,535.0 1484.5,508.0 1471.0,503.5 1465.5,497.0 1402.5,316.0 1404.0,314.5 1459.0,314.5 1462.5,317.0 1484.5,384.0 1498.5,437.0 1501.5,445.0 1504.0,446.5 1540.5,319.0 1549.0,314.5 1597.0,314.5 1598.5,319.0 1595.5,329.0 1525.5,545.0 1515.5,565.0 1502.0,581.5 1483.0,593.5 1470.0,596.5Z M724.5,489.0 754.0,482.5 771.0,472.5 783.5,461.0 794.5,445.0 801.5,426.0 802.5,396.0 794.5,374.0 786.5,360.0 771.0,344.5 755.0,335.5 743.0,331.5 710.0,329.5 683.0,338.5 668.0,348.5 659.5,357.0 648.5,374.0 642.5,390.0 640.5,420.0 643.5,434.0 651.5,452.0 667.0,470.5 679.0,478.5 697.0,486.5 710.0,489.5 724.5,489.0Z M752.0,359.5 728.5,337.0 737.0,336.5 749.0,339.5 762.0,345.5 764.5,350.0 752.0,359.5Z M725.0,372.5 719.0,372.5 716.5,368.0 711.5,340.0 714.0,337.5 727.0,343.5 744.5,363.0 737.0,368.5 725.0,372.5Z M705.0,375.5 688.0,374.5 685.5,373.0 685.5,369.0 690.5,355.0 697.5,344.0 701.0,340.5 707.0,339.5 711.5,374.0 705.0,375.5Z M3233.5,489.0 3245.0,485.5 3257.0,477.5 3268.5,460.0 3275.5,438.0 3276.5,399.0 3272.5,376.0 3263.5,358.0 3254.0,348.5 3245.0,343.5 3231.0,339.5 3220.0,339.5 3211.0,341.5 3197.0,348.5 3187.5,358.0 3180.5,370.0 3173.5,396.0 3173.5,430.0 3180.5,458.0 3189.5,474.0 3195.0,479.5 3216.0,489.5 3233.5,489.0Z M3033.5,488.0 3048.0,483.5 3056.0,477.5 3063.5,468.0 3072.5,446.0 3075.5,408.0 3071.5,380.0 3061.5,357.0 3051.0,346.5 3041.0,341.5 3026.0,340.5 3008.0,344.5 3000.0,349.5 2993.5,355.0 2983.5,371.0 2983.5,461.0 2990.5,472.0 3002.0,481.5 3017.0,487.5 3033.5,488.0Z M679.0,371.5 661.0,369.5 659.5,366.0 673.0,352.5 689.0,343.5 690.5,345.0 684.5,355.0 679.0,371.5Z M1338.5,391.0 1338.5,376.0 1332.5,362.0 1324.0,354.5 1314.0,350.5 1298.0,351.5 1287.0,357.5 1277.5,371.0 1272.5,388.0 1275.0,391.5 1338.5,391.0Z M2132.5,472.0 2143.0,468.5 2156.5,456.0 2157.5,369.0 2152.0,362.5 2142.0,356.5 2124.0,353.5 2109.0,358.5 2096.5,372.0 2089.5,392.0 2088.5,424.0 2094.5,450.0 2102.5,463.0 2120.0,472.5 2132.5,472.0Z M769.0,398.5 763.5,396.0 752.5,367.0 769.0,354.5 773.0,354.5 788.5,373.0 795.5,393.0 769.0,398.5Z M1708.5,472.0 1722.0,465.5 1733.5,451.0 1739.5,426.0 1739.5,399.0 1732.5,374.0 1721.0,360.5 1707.0,354.5 1694.0,354.5 1681.0,360.5 1673.5,368.0 1667.5,379.0 1662.5,401.0 1662.5,426.0 1668.5,451.0 1674.0,459.5 1689.0,470.5 1695.0,472.5 1708.5,472.0Z M730.0,404.5 722.5,403.0 719.5,381.0 737.0,373.5 748.0,371.5 756.5,388.0 758.5,398.0 730.0,404.5Z M653.0,417.5 645.5,416.0 646.5,396.0 652.5,377.0 656.0,373.5 660.0,373.5 677.0,379.5 676.5,413.0 653.0,417.5Z M689.0,411.5 684.0,411.5 681.5,409.0 683.5,381.0 690.0,379.5 713.0,381.5 716.5,392.0 717.5,405.0 713.0,407.5 689.0,411.5Z M1099.5,467.0 1113.0,464.5 1123.0,459.5 1132.5,448.0 1135.5,438.0 1135.5,423.0 1129.5,405.0 1120.0,397.5 1108.0,393.5 1058.0,391.5 1056.5,393.0 1056.5,465.0 1059.0,467.5 1099.5,467.0Z M787.0,444.5 765.5,437.0 766.5,411.0 764.5,407.0 770.0,403.5 796.0,400.5 797.5,411.0 795.5,426.0 787.0,444.5Z M758.0,436.5 730.0,436.5 724.5,414.0 727.0,411.5 758.0,406.5 759.5,408.0 759.5,435.0 758.0,436.5Z M698.0,447.5 694.0,447.5 686.5,436.0 683.5,420.0 688.0,417.5 718.0,413.5 722.5,437.0 706.0,442.5 698.0,447.5Z M2516.5,489.0 2538.0,480.5 2552.5,465.0 2553.5,421.0 2551.0,418.5 2522.0,420.5 2498.0,426.5 2486.0,433.5 2477.5,445.0 2474.5,459.0 2478.5,476.0 2492.0,487.5 2498.0,489.5 2516.5,489.0Z M674.0,464.5 669.0,463.5 653.5,446.0 648.5,433.0 650.0,424.5 670.0,420.5 678.5,422.0 688.5,452.0 674.0,464.5Z M740.0,477.5 734.5,475.0 732.5,469.0 729.5,444.0 756.0,442.5 757.5,449.0 754.5,456.0 740.0,477.5Z M728.0,479.5 723.0,479.5 713.0,473.5 697.5,454.0 706.0,448.5 722.0,444.5 725.5,450.0 728.0,479.5Z M753.0,476.5 748.5,475.0 755.5,466.0 765.0,444.5 781.5,450.0 780.5,454.0 767.0,467.5 753.0,476.5Z M714.0,482.5 698.0,480.5 678.0,470.5 677.5,468.0 687.0,460.5 694.0,458.5 699.5,468.0 706.0,475.5 713.0,479.5 714.0,482.5Z M335.0,711.5 332.0,711.5 331.5,709.0 372.0,684.5 425.0,647.5 458.0,619.5 484.5,593.0 503.5,571.0 532.5,531.0 571.0,460.5 570.5,469.0 559.5,502.0 537.5,550.0 510.5,591.0 485.5,621.0 454.0,650.5 426.0,670.5 390.0,690.5 335.0,711.5Z"/></svg>