<svg xmlns="http://www.w3.org/2000/svg" viewBox="0 0 1101 233" role="img" aria-label="Beyond Passports">
<path fill="#0f304e" fill-rule="evenodd" d="M80.0,217.5 L74.5,217.0 L100.0,198.5 L110.5,188.0 L118.5,177.0 L122.5,167.0 L121.5,152.0 L109.0,139.5 L98.0,134.5 L74.0,127.5 L57.0,118.5 L44.5,106.0 L39.5,97.0 L60.0,108.5 L95.0,117.5 L112.5,125.0 L103.0,117.5 L91.0,111.5 L63.0,101.5 L47.0,92.5 L30.5,76.0 L21.5,57.0 L36.0,68.5 L51.0,76.5 L87.0,88.5 L109.5,99.0 L103.0,92.5 L92.0,85.5 L66.0,75.5 L50.0,67.5 L37.0,58.5 L22.5,42.0 L15.5,26.0 L14.0,13.5 L26.0,25.5 L50.0,41.5 L72.0,52.5 L106.0,65.5 L128.0,77.5 L139.5,87.0 L151.0,104.5 L154.0,99.5 L155.5,101.0 L160.5,113.0 L163.5,129.0 L163.5,142.0 L159.5,161.0 L159.5,164.0 L161.0,163.5 L161.5,165.0 L156.5,172.0 L138.0,190.5 L119.0,203.5 L102.0,211.5 L80.0,217.5 Z M226.0,35.5 L224.5,35.0 L226.0,35.5 Z M247.0,40.5 L243.5,40.0 L247.0,40.5 Z M196.0,41.5 L194.5,41.0 L196.0,41.5 Z M194.0,42.5 L192.5,42.0 L194.0,42.5 Z M191.0,43.5 L189.5,43.0 L191.0,43.5 Z M201.0,43.5 L199.5,43.0 L201.0,43.5 Z M189.0,44.5 L186.5,44.0 L189.0,44.5 Z M198.0,44.5 L195.5,44.0 L198.0,44.5 Z M186.0,45.5 L183.5,45.0 L186.0,45.5 Z M194.0,45.5 L191.5,45.0 L194.0,45.5 Z M183.0,46.5 L180.5,46.0 L183.0,46.5 Z M191.0,46.5 L189.5,46.0 L191.0,46.5 Z M180.0,47.5 L178.5,47.0 L180.0,47.5 Z M188.0,47.5 L185.5,47.0 L188.0,47.5 Z M177.0,48.5 L175.5,48.0 L177.0,48.5 Z M184.0,48.5 L181.5,48.0 L184.0,48.5 Z M208.0,48.5 L206.5,48.0 L208.0,48.5 Z M174.0,49.5 L172.5,49.0 L174.0,49.5 Z M181.0,49.5 L179.5,49.0 L181.0,49.5 Z M202.0,50.5 L197.5,50.0 L205.5,49.0 L202.0,50.5 Z M171.0,50.5 L169.5,50.0 L171.0,50.5 Z M178.0,50.5 L176.5,50.0 L178.0,50.5 Z M170.0,52.5 L166.5,51.0 L169.0,50.5 L170.0,52.5 Z M174.0,51.5 L171.5,51.0 L174.0,51.5 Z M159.0,55.5 L156.5,55.0 L166.5,52.0 L166.0,53.5 L159.0,55.5 Z M191.0,52.5 L189.5,52.0 L191.0,52.5 Z M156.0,56.5 L153.5,56.0 L156.0,56.5 Z M167.0,57.5 L164.5,57.0 L167.0,57.5 Z M163.0,58.5 L159.5,58.0 L163.0,58.5 Z M150.0,82.5 L146.5,66.0 L146.5,62.0 L149.0,58.5 L150.0,82.5 Z M185.0,74.5 L183.5,74.0 L185.0,74.5 Z M181.0,75.5 L179.5,75.0 L181.0,75.5 Z M179.0,76.5 L177.5,76.0 L179.0,76.5 Z M170.0,77.5 L166.5,77.0 L170.0,77.5 Z M624.0,160.5 L611.0,159.5 L600.5,149.0 L597.5,137.0 L598.5,121.0 L603.5,110.0 L614.0,102.5 L626.0,102.5 L634.0,106.5 L634.5,78.0 L647.0,77.5 L649.5,81.0 L649.5,159.0 L637.0,159.5 L635.0,153.5 L631.0,157.5 L624.0,160.5 Z M168.0,81.5 L165.5,81.0 L168.0,81.5 Z M154.0,82.5 L151.5,82.0 L154.0,82.5 Z M164.0,82.5 L155.5,82.0 L164.0,82.5 Z M333.0,159.5 L300.5,159.0 L301.0,82.5 L337.0,82.5 L346.0,86.5 L352.5,95.0 L352.5,108.0 L348.5,114.0 L342.5,118.0 L352.5,125.0 L355.5,131.0 L355.5,144.0 L353.5,149.0 L347.0,155.5 L333.0,159.5 Z M672.0,159.5 L664.5,159.0 L664.5,83.0 L676.0,81.5 L693.0,82.5 L702.0,86.5 L708.5,95.0 L708.5,115.0 L706.5,119.0 L696.0,127.5 L674.0,128.5 L672.5,130.0 L672.0,159.5 Z M151.0,88.5 L151.0,86.5 L151.0,88.5 Z M1036.0,160.5 L1026.0,160.5 L1019.5,156.0 L1017.5,151.0 L1017.5,111.0 L1009.5,110.0 L1010.0,104.5 L1017.5,104.0 L1017.5,89.0 L1025.0,86.5 L1025.5,104.0 L1039.0,104.5 L1040.5,109.0 L1039.0,110.5 L1025.5,111.0 L1025.5,148.0 L1030.0,153.5 L1040.5,152.0 L1042.5,157.0 L1036.0,160.5 Z M211.0,89.5 L208.5,89.0 L211.0,89.5 Z M685.5,122.0 L691.0,121.5 L697.5,117.0 L700.5,110.0 L699.5,97.0 L695.0,91.5 L691.0,89.5 L674.0,88.5 L672.5,90.0 L672.5,121.0 L674.0,122.5 L685.5,122.0 Z M204.0,92.5 L202.5,92.0 L204.0,92.5 Z M329.5,113.0 L336.5,108.0 L335.5,97.0 L330.0,93.5 L317.0,93.5 L315.5,113.0 L329.5,113.0 Z M196.0,104.5 L193.5,104.0 L196.0,99.5 L196.0,104.5 Z M399.0,160.5 L380.0,159.5 L374.0,156.5 L368.5,151.0 L364.5,144.0 L362.5,135.0 L363.5,122.0 L370.5,109.0 L377.0,104.5 L383.0,102.5 L396.0,102.5 L405.0,106.5 L411.5,115.0 L413.5,122.0 L413.0,134.5 L378.5,135.0 L379.5,142.0 L385.0,147.5 L390.0,149.5 L401.0,148.5 L409.5,145.0 L412.5,154.0 L406.0,158.5 L399.0,160.5 Z M509.0,160.5 L495.0,160.5 L489.0,158.5 L481.5,153.0 L475.5,141.0 L474.5,129.0 L476.5,119.0 L479.5,113.0 L486.0,106.5 L492.0,103.5 L509.0,102.5 L515.0,104.5 L523.5,111.0 L528.5,121.0 L529.5,136.0 L526.5,147.0 L517.0,157.5 L509.0,160.5 Z M588.0,159.5 L572.5,159.0 L572.5,121.0 L570.5,117.0 L566.0,114.5 L557.0,116.5 L553.5,121.0 L553.5,159.0 L538.5,159.0 L539.0,103.5 L551.0,103.5 L554.0,108.5 L564.0,102.5 L576.0,102.5 L584.5,108.0 L587.5,114.0 L588.0,159.5 Z M870.0,183.5 L861.5,183.0 L861.5,105.0 L863.0,103.5 L868.0,103.5 L869.5,109.0 L871.0,109.5 L880.0,103.5 L892.0,103.5 L901.5,110.0 L905.5,117.0 L907.5,129.0 L905.5,146.0 L902.5,152.0 L894.0,159.5 L881.0,160.5 L870.5,155.0 L870.0,183.5 Z M438.0,183.5 L425.0,183.5 L421.5,182.0 L422.5,172.0 L433.0,171.5 L437.5,167.0 L440.5,158.0 L437.0,157.5 L434.5,155.0 L416.5,104.0 L432.0,103.5 L433.5,105.0 L445.0,142.5 L456.5,105.0 L458.0,103.5 L471.0,103.5 L471.5,107.0 L450.5,171.0 L446.5,177.0 L438.0,183.5 Z M760.0,160.5 L752.0,159.5 L748.0,153.5 L742.0,158.5 L736.0,160.5 L724.0,159.5 L717.5,154.0 L715.5,149.0 L715.5,141.0 L721.0,132.5 L733.0,127.5 L747.5,126.0 L747.5,116.0 L744.0,111.5 L733.0,109.5 L721.0,114.5 L718.5,110.0 L719.0,107.5 L729.0,103.5 L745.0,103.5 L753.5,109.0 L756.5,117.0 L756.5,152.0 L761.5,155.0 L760.0,160.5 Z M792.0,160.5 L780.0,160.5 L768.5,156.0 L771.0,148.5 L779.0,153.5 L789.0,154.5 L794.0,152.5 L797.5,147.0 L797.5,143.0 L793.0,137.5 L777.0,131.5 L769.5,123.0 L770.5,112.0 L775.0,106.5 L782.0,103.5 L795.0,103.5 L804.5,108.0 L801.0,113.5 L792.0,109.5 L785.0,109.5 L782.0,110.5 L777.5,116.0 L778.5,121.0 L782.0,124.5 L798.0,130.5 L805.5,139.0 L804.5,152.0 L798.0,158.5 L792.0,160.5 Z M838.0,160.5 L824.0,160.5 L813.5,156.0 L816.0,148.5 L824.0,153.5 L833.0,154.5 L839.0,152.5 L842.5,148.0 L842.5,143.0 L838.0,137.5 L822.0,131.5 L815.5,125.0 L815.5,112.0 L820.0,106.5 L827.0,103.5 L840.0,103.5 L849.5,108.0 L846.0,113.5 L841.0,110.5 L830.0,109.5 L827.0,110.5 L822.5,116.0 L823.5,121.0 L827.0,124.5 L843.0,130.5 L850.5,139.0 L850.5,149.0 L848.5,153.0 L838.0,160.5 Z M946.0,160.5 L935.0,160.5 L927.0,157.5 L919.5,149.0 L916.5,140.0 L916.5,124.0 L918.5,118.0 L921.5,112.0 L927.0,106.5 L934.0,103.5 L948.0,103.5 L955.0,106.5 L961.5,114.0 L964.5,122.0 L965.5,133.0 L962.5,147.0 L954.0,157.5 L946.0,160.5 Z M985.0,159.5 L978.0,159.5 L976.5,158.0 L976.5,105.0 L983.0,103.5 L984.5,105.0 L984.5,111.0 L986.0,111.5 L991.0,105.5 L995.0,103.5 L1004.0,103.5 L1004.5,107.0 L1002.0,112.5 L992.0,112.5 L985.5,121.0 L985.0,159.5 Z M1072.0,160.5 L1060.0,160.5 L1053.0,158.5 L1048.5,155.0 L1051.0,148.5 L1057.0,152.5 L1068.0,154.5 L1074.0,152.5 L1077.5,147.0 L1077.5,143.0 L1073.0,137.5 L1057.0,131.5 L1051.5,127.0 L1049.5,123.0 L1049.5,114.0 L1051.5,110.0 L1061.0,103.5 L1075.0,103.5 L1083.5,108.0 L1081.0,113.5 L1072.0,109.5 L1065.0,109.5 L1062.0,110.5 L1057.5,116.0 L1058.5,121.0 L1063.0,125.5 L1078.0,130.5 L1085.5,139.0 L1084.5,152.0 L1078.0,158.5 L1072.0,160.5 Z M222.0,106.5 L217.5,106.0 L222.0,106.5 Z M888.5,153.0 L894.5,148.0 L897.5,142.0 L898.5,128.0 L894.5,115.0 L886.0,109.5 L877.0,111.5 L870.5,119.0 L870.5,145.0 L876.0,151.5 L880.0,153.5 L888.5,153.0 Z M945.5,153.0 L949.0,151.5 L954.5,144.0 L956.5,128.0 L952.5,115.0 L946.0,110.5 L939.0,109.5 L933.0,111.5 L926.5,120.0 L925.5,140.0 L932.0,151.5 L936.0,153.5 L945.5,153.0 Z M190.0,112.5 L190.0,110.5 L190.0,112.5 Z M215.0,112.5 L215.0,110.5 L215.0,112.5 Z M220.0,111.5 L218.5,111.0 L220.0,111.5 Z M398.5,125.0 L396.5,116.0 L391.0,112.5 L383.0,114.5 L378.5,121.0 L379.0,125.5 L398.5,125.0 Z M189.0,115.5 L189.0,113.5 L189.0,115.5 Z M208.0,116.5 L206.5,115.0 L208.0,113.5 L208.0,116.5 Z M213.0,115.5 L213.0,113.5 L213.0,115.5 Z M504.5,149.0 L508.0,147.5 L512.5,142.0 L513.5,124.0 L508.0,115.5 L501.0,113.5 L496.0,115.5 L491.5,122.0 L490.5,137.0 L496.0,147.5 L501.0,149.5 L504.5,149.0 Z M626.5,149.0 L632.0,146.5 L634.5,142.0 L634.5,119.0 L630.0,114.5 L623.0,113.5 L615.5,119.0 L612.5,132.0 L615.5,144.0 L620.0,148.5 L626.5,149.0 Z M220.0,118.5 L220.0,114.5 L220.0,118.5 Z M212.0,117.5 L212.0,115.5 L212.0,117.5 Z M225.0,117.5 L225.0,115.5 L225.0,117.5 Z M235.0,116.5 L233.5,116.0 L235.0,116.5 Z M207.0,118.5 L203.5,118.0 L205.0,116.5 L207.0,118.5 Z M216.0,119.5 L216.0,117.5 L216.0,119.5 Z M223.0,118.5 L221.5,118.0 L223.0,118.5 Z M231.0,119.5 L231.0,117.5 L231.0,119.5 Z M214.0,119.5 L210.5,119.0 L214.0,119.5 Z M227.0,121.5 L224.5,121.0 L227.0,121.5 Z M197.0,123.5 L197.0,121.5 L197.0,123.5 Z M205.0,122.5 L203.5,122.0 L205.0,122.5 Z M186.0,124.5 L186.0,122.5 L186.0,124.5 Z M210.0,130.5 L209.5,123.0 L212.0,122.5 L210.0,130.5 Z M221.0,124.5 L221.0,122.5 L221.0,124.5 Z M229.0,126.5 L229.0,123.5 L229.0,126.5 Z M240.0,125.5 L240.0,123.5 L240.0,125.5 Z M206.0,130.5 L206.0,124.5 L206.0,130.5 Z M331.5,147.0 L336.0,145.5 L339.5,141.0 L340.5,135.0 L338.5,129.0 L336.0,126.5 L329.0,124.5 L317.0,124.5 L315.5,146.0 L317.0,147.5 L331.5,147.0 Z M185.0,127.5 L185.0,125.5 L185.0,127.5 Z M196.0,127.5 L196.0,125.5 L196.0,127.5 Z M200.0,128.5 L200.0,125.5 L200.0,128.5 Z M235.0,126.5 L233.5,126.0 L235.0,126.5 Z M227.0,127.5 L225.5,127.0 L227.0,127.5 Z M216.0,129.5 L213.5,129.0 L216.0,129.5 Z M241.0,130.5 L238.5,129.0 L241.0,128.5 L241.0,130.5 Z M184.0,132.5 L184.0,129.5 L184.0,132.5 Z M204.0,131.5 L200.0,131.5 L199.5,130.0 L204.0,131.5 Z M234.0,131.5 L233.5,130.0 L235.0,129.5 L234.0,131.5 Z M230.0,132.5 L226.5,131.0 L230.0,130.5 L230.0,132.5 Z M177.0,133.5 L177.0,131.5 L177.0,133.5 Z M196.0,137.5 L196.0,131.5 L196.0,137.5 Z M218.0,133.5 L215.5,133.0 L218.0,133.5 Z M735.5,154.0 L742.0,152.5 L747.5,147.0 L748.5,134.0 L747.0,132.5 L734.0,133.5 L725.5,139.0 L725.5,150.0 L730.0,153.5 L735.5,154.0 Z M175.0,138.5 L176.0,133.5 L175.0,138.5 Z M183.0,137.5 L183.0,133.5 L183.0,137.5 Z M211.0,136.5 L210.5,134.0 L212.0,133.5 L211.0,136.5 Z M203.0,142.5 L199.5,136.0 L207.0,134.5 L207.0,137.5 L206.0,135.5 L201.5,137.0 L203.0,142.5 Z M224.0,137.5 L222.5,137.0 L224.0,137.5 Z M230.0,137.5 L228.5,137.0 L230.0,137.5 Z M182.0,140.5 L182.0,137.5 L182.0,140.5 Z M197.0,140.5 L197.0,137.5 L197.0,140.5 Z M208.0,140.5 L208.0,137.5 L208.0,140.5 Z M212.0,139.5 L212.0,137.5 L212.0,139.5 Z M173.0,143.5 L174.0,138.5 L173.0,143.5 Z M209.0,143.5 L207.5,143.0 L209.0,140.5 L209.0,143.5 Z M224.0,143.5 L223.5,141.0 L226.0,140.5 L224.0,143.5 Z M229.0,142.5 L229.0,140.5 L229.0,142.5 Z M179.0,156.5 L177.5,153.0 L181.0,141.5 L180.5,155.0 L179.0,156.5 Z M220.0,144.5 L218.0,141.5 L220.5,142.0 L220.0,144.5 Z M233.0,143.5 L233.0,141.5 L233.0,143.5 Z M215.0,144.5 L215.0,142.5 L217.5,143.0 L215.0,144.5 Z M200.0,145.5 L200.0,143.5 L200.0,145.5 Z M228.0,145.5 L228.0,143.5 L228.0,145.5 Z M172.0,146.5 L172.0,144.5 L172.0,146.5 Z M233.0,146.5 L231.5,146.0 L232.0,144.5 L233.0,146.5 Z M211.0,148.5 L208.5,147.0 L212.0,145.5 L211.0,148.5 Z M225.0,149.5 L225.0,145.5 L226.5,148.0 L225.0,149.5 Z M171.0,148.5 L171.0,146.5 L171.0,148.5 Z M215.0,150.5 L211.5,149.0 L213.0,147.5 L215.0,150.5 Z M221.0,149.5 L219.5,149.0 L221.0,147.5 L221.0,149.5 Z M166.0,157.5 L168.5,149.0 L170.0,148.5 L166.0,157.5 Z M215.0,154.5 L213.5,154.0 L215.0,154.5 Z M177.0,157.5 L177.0,155.5 L177.0,157.5 Z M169.0,165.5 L167.5,163.0 L172.0,156.5 L169.0,165.5 Z M165.0,159.5 L165.0,157.5 L165.0,159.5 Z M176.0,160.5 L176.0,158.5 L176.0,160.5 Z M163.0,162.5 L163.0,160.5 L163.0,162.5 Z M175.0,162.5 L175.0,160.5 L175.0,162.5 Z M174.0,165.5 L174.0,163.5 L174.0,165.5 Z M167.0,166.5 L167.0,164.5 L167.0,166.5 Z M167.0,169.5 L164.5,169.0 L166.0,166.5 L167.0,169.5 Z M172.0,170.5 L172.0,168.5 L172.0,170.5 Z M162.0,173.5 L161.5,172.0 L164.0,169.5 L164.5,171.0 L162.0,173.5 Z M166.0,171.5 L166.0,169.5 L166.0,171.5 Z M171.0,172.5 L171.0,170.5 L171.0,172.5 Z M164.0,174.5 L164.0,172.5 L164.0,174.5 Z M169.0,175.5 L170.0,172.5 L169.0,175.5 Z M159.0,177.5 L158.5,176.0 L161.0,173.5 L161.5,175.0 L159.0,177.5 Z M152.0,185.5 L151.5,184.0 L158.0,177.5 L159.0,178.5 L163.5,175.0 L157.0,184.5 L157.0,180.5 L152.0,185.5 Z M168.0,177.5 L168.0,175.5 L168.0,177.5 Z M173.0,179.5 L172.0,175.5 L173.0,179.5 Z M167.0,179.5 L167.0,177.5 L167.0,179.5 Z M167.0,190.5 L166.0,179.5 L167.5,183.0 L167.0,190.5 Z M232.0,181.5 L229.5,181.0 L232.0,181.5 Z M152.0,190.5 L151.5,189.0 L155.0,185.5 L155.5,187.0 L152.0,190.5 Z M203.0,186.5 L201.5,186.0 L203.0,186.5 Z M198.0,187.5 L194.5,187.0 L198.0,187.5 Z M193.0,188.5 L187.5,188.0 L193.0,188.5 Z M182.0,190.5 L170.5,189.0 L187.5,189.0 L182.0,190.5 Z M116.0,214.5 L113.5,214.0 L138.0,197.5 L146.0,189.5 L147.5,190.0 L142.5,195.0 L145.0,195.5 L148.0,192.5 L149.5,193.0 L143.0,199.5 L133.0,206.5 L116.0,214.5 Z M175.0,191.5 L170.5,191.0 L175.0,191.5 Z M169.0,192.5 L167.5,192.0 L169.0,192.5 Z M113.0,215.5 L111.5,215.0 L113.0,215.5 Z M74.0,218.5 L72.5,218.0 L74.0,218.5 Z"/>
<path fill="#20666d" fill-rule="evenodd" d="M175.0,51.5 L171.5,49.0 L174.0,49.5 L175.0,47.5 L177.0,48.5 L178.0,46.5 L180.0,47.5 L189.0,44.5 L191.5,43.0 L191.0,41.5 L194.0,42.5 L197.0,39.5 L198.0,40.5 L205.0,36.5 L211.0,34.5 L212.0,35.5 L213.0,33.5 L219.0,31.5 L220.0,32.5 L224.0,29.5 L235.0,27.5 L237.5,30.0 L237.0,34.5 L225.0,34.5 L225.0,36.5 L223.0,35.5 L222.0,37.5 L220.0,36.5 L218.0,38.5 L202.0,43.5 L200.0,42.5 L199.0,44.5 L196.0,43.5 L196.0,45.5 L192.0,44.5 L189.0,47.5 L182.0,47.5 L179.0,50.5 L177.0,49.5 L175.0,51.5 Z M171.0,192.5 L166.5,192.0 L166.5,180.0 L172.5,170.0 L172.5,166.0 L174.5,165.0 L173.5,163.0 L176.5,160.0 L176.5,155.0 L178.0,154.5 L179.0,156.5 L180.5,155.0 L180.5,141.0 L183.5,137.0 L182.5,133.0 L184.5,132.0 L183.5,129.0 L185.5,127.0 L184.5,125.0 L186.5,124.0 L185.5,122.0 L188.5,117.0 L187.5,116.0 L189.5,115.0 L188.5,113.0 L190.5,112.0 L189.5,110.0 L191.5,109.0 L190.5,108.0 L192.5,107.0 L192.0,105.5 L196.5,104.0 L195.5,102.0 L197.0,97.5 L206.0,89.5 L211.0,89.5 L212.0,87.5 L216.0,87.5 L216.5,86.0 L211.0,78.5 L197.0,77.5 L194.0,74.5 L193.0,75.5 L185.0,73.5 L183.0,75.5 L180.0,74.5 L177.0,77.5 L176.0,76.5 L175.0,78.5 L172.0,78.5 L171.0,80.5 L166.0,80.5 L165.0,82.5 L151.5,82.0 L152.0,85.5 L155.0,84.5 L158.0,87.5 L168.0,86.5 L187.0,78.5 L190.0,78.5 L195.0,82.5 L205.0,81.5 L209.5,84.0 L198.0,89.5 L188.5,100.0 L189.5,101.0 L184.5,108.0 L185.5,109.0 L178.5,126.0 L178.5,130.0 L172.5,141.0 L173.5,144.0 L168.5,149.0 L164.5,159.0 L160.0,164.5 L163.5,142.0 L163.5,129.0 L160.5,113.0 L150.5,90.0 L151.5,87.0 L149.5,84.0 L150.5,77.0 L148.5,69.0 L149.5,58.0 L151.0,57.5 L151.0,59.5 L157.0,57.5 L163.0,58.5 L163.0,56.5 L167.0,57.5 L169.0,55.5 L183.0,52.5 L185.0,53.5 L187.0,51.5 L191.0,52.5 L192.0,50.5 L194.0,51.5 L197.0,49.5 L202.0,50.5 L205.0,49.5 L205.0,47.5 L208.0,48.5 L210.0,46.5 L237.0,40.5 L249.0,40.5 L270.5,166.0 L269.5,173.0 L264.0,176.5 L240.0,180.5 L236.0,179.5 L235.0,181.5 L230.0,180.5 L230.0,182.5 L226.0,181.5 L212.0,185.5 L202.0,185.5 L200.0,187.5 L195.0,186.5 L195.0,188.5 L171.0,188.5 L177.5,191.0 L171.0,190.5 L171.0,192.5 Z M171.0,52.5 L170.0,50.5 L171.5,51.0 L171.0,52.5 Z M167.0,53.5 L167.0,51.5 L167.0,53.5 Z M154.0,57.5 L151.5,57.0 L154.0,57.5 Z M147.0,68.5 L147.0,66.5 L147.0,68.5 Z M148.0,74.5 L148.0,72.5 L148.0,74.5 Z M170.5,77.0 L166.5,77.0 L170.5,77.0 Z M634.0,106.5 L634.0,77.5 L634.0,106.5 Z M307.0,82.5 L305.5,82.0 L307.0,82.5 Z M675.0,82.5 L668.5,82.0 L675.0,82.5 Z M688.0,82.5 L684.5,82.0 L688.0,82.5 Z M664.0,84.5 L664.0,82.5 L664.0,84.5 Z M664.0,99.5 L664.0,87.5 L664.0,99.5 Z M685.0,89.5 L673.5,89.0 L685.0,89.5 Z M673.0,92.5 L673.0,90.5 L673.0,92.5 Z M353.0,103.5 L353.0,99.5 L353.0,103.5 Z M622.0,102.5 L618.5,102.0 L622.0,102.5 Z M740.0,103.5 L733.5,103.0 L740.0,103.5 Z M790.0,103.5 L785.5,103.0 L790.0,103.5 Z M835.0,103.5 L831.5,103.0 L835.0,103.5 Z M888.0,103.5 L885.5,103.0 L888.0,103.5 Z M944.0,103.5 L938.5,103.0 L944.0,103.5 Z M1000.0,103.5 L998.5,103.0 L1000.0,103.5 Z M1070.0,103.5 L1066.5,103.0 L1070.0,103.5 Z M316.0,105.5 L316.0,103.5 L316.0,105.5 Z M978.0,104.5 L976.5,104.0 L978.0,104.5 Z M1039.0,104.5 L1025.5,104.0 L1039.0,104.5 Z M1009.0,110.5 L1009.0,104.5 L1009.0,110.5 Z M1040.0,108.5 L1040.0,104.5 L1040.0,108.5 Z M215.5,154.0 L228.0,153.5 L233.0,150.5 L240.5,143.0 L244.5,133.0 L244.5,126.0 L240.5,117.0 L231.0,108.5 L222.0,105.5 L218.0,105.5 L216.0,107.5 L214.0,106.5 L210.0,109.5 L209.0,108.5 L208.0,110.5 L207.0,109.5 L205.0,112.5 L204.0,111.5 L198.5,118.0 L199.5,119.0 L196.5,122.0 L197.5,124.0 L195.5,126.0 L195.5,137.0 L199.5,142.0 L199.5,145.0 L207.0,151.5 L208.0,150.5 L211.0,153.5 L213.0,152.5 L214.0,154.5 L215.5,154.0 Z M664.0,120.5 L664.0,107.5 L664.0,120.5 Z M1004.0,109.5 L1004.0,107.5 L1004.0,109.5 Z M734.0,110.5 L732.5,110.0 L734.0,110.5 Z M739.0,110.5 L735.5,110.0 L739.0,110.5 Z M977.0,157.5 L977.0,109.5 L977.0,157.5 Z M229.0,114.5 L225.5,112.0 L227.0,110.5 L230.5,113.0 L229.0,114.5 Z M316.0,113.5 L316.0,110.5 L316.0,113.5 Z M221.0,119.5 L219.5,119.0 L220.5,115.0 L218.5,114.0 L219.0,111.5 L224.5,116.0 L224.5,118.0 L222.0,117.5 L221.0,119.5 Z M862.0,136.5 L862.0,111.5 L862.0,136.5 Z M209.0,114.5 L209.0,112.5 L209.0,114.5 Z M391.0,113.5 L389.5,113.0 L391.0,113.5 Z M215.0,119.5 L210.5,118.0 L214.0,113.5 L216.5,115.0 L215.0,119.5 Z M504.0,114.5 L500.5,114.0 L504.0,114.5 Z M626.0,114.5 L622.5,114.0 L626.0,114.5 Z M208.0,117.5 L205.5,117.0 L207.0,115.5 L208.0,117.5 Z M778.0,119.5 L778.0,115.5 L778.0,119.5 Z M823.0,118.5 L823.0,115.5 L823.0,118.5 Z M1058.0,117.5 L1058.0,115.5 L1058.0,117.5 Z M237.0,126.5 L232.5,126.0 L232.5,121.0 L230.5,120.0 L232.0,116.5 L235.0,116.5 L239.5,121.0 L238.5,122.0 L240.5,123.0 L237.0,126.5 Z M634.0,139.5 L634.0,118.5 L634.0,139.5 Z M588.0,155.5 L588.0,119.5 L588.0,155.5 Z M206.0,131.5 L200.0,129.5 L198.5,131.0 L198.5,129.0 L200.5,128.0 L200.5,122.0 L203.0,120.5 L206.5,124.0 L206.0,131.5 Z M224.0,128.5 L220.5,127.0 L221.5,122.0 L223.0,122.5 L224.0,120.5 L229.5,123.0 L229.5,127.0 L226.0,126.5 L224.0,128.5 Z M685.0,122.5 L673.5,122.0 L685.0,122.5 Z M212.0,130.5 L210.5,130.0 L210.5,124.0 L217.0,122.5 L218.5,129.0 L214.0,128.5 L212.0,130.5 Z M112.0,125.5 L109.5,124.0 L111.0,123.5 L112.0,125.5 Z M965.0,128.5 L965.0,125.5 L965.0,128.5 Z M740.0,127.5 L738.5,127.0 L740.0,127.5 Z M907.0,128.5 L907.0,126.5 L907.0,128.5 Z M898.0,129.5 L898.0,127.5 L898.0,129.5 Z M239.0,139.5 L233.5,137.0 L233.5,132.0 L237.0,128.5 L241.5,131.0 L239.0,139.5 Z M613.0,132.5 L613.0,128.5 L613.0,132.5 Z M687.0,129.5 L673.5,129.0 L687.0,129.5 Z M664.0,143.5 L664.0,129.5 L664.0,143.5 Z M228.0,137.5 L223.0,136.5 L221.5,132.0 L225.0,130.5 L229.0,131.5 L230.5,136.0 L228.0,137.5 Z M673.0,135.5 L673.0,131.5 L673.0,135.5 Z M214.0,140.5 L210.5,137.0 L212.5,133.0 L219.0,132.5 L219.5,137.0 L216.0,139.5 L215.0,138.5 L214.0,140.5 Z M748.0,138.5 L748.0,133.5 L748.0,138.5 Z M898.0,136.5 L898.0,133.5 L898.0,136.5 Z M965.0,137.5 L965.0,133.5 L965.0,137.5 Z M340.0,138.5 L340.0,134.5 L340.0,138.5 Z M413.0,135.5 L384.5,135.0 L413.0,135.5 Z M475.0,136.5 L475.0,134.5 L475.0,136.5 Z M907.0,137.5 L907.0,134.5 L907.0,137.5 Z M956.0,136.5 L956.0,134.5 L956.0,136.5 Z M206.0,144.5 L201.5,138.0 L203.0,135.5 L206.0,135.5 L207.5,138.0 L208.5,142.0 L206.0,144.5 Z M316.0,140.5 L316.0,136.5 L316.0,140.5 Z M356.0,139.5 L356.0,136.5 L356.0,139.5 Z M529.0,138.5 L529.0,136.5 L529.0,138.5 Z M227.0,147.5 L223.5,144.0 L228.0,140.5 L229.5,143.0 L227.5,144.0 L227.0,147.5 Z M748.0,143.5 L748.0,140.5 L748.0,143.5 Z M233.0,145.5 L231.5,144.0 L234.0,141.5 L235.5,144.0 L233.0,145.5 Z M806.0,146.5 L806.0,141.5 L806.0,146.5 Z M220.0,148.5 L216.0,143.5 L219.0,142.5 L221.5,145.0 L220.0,148.5 Z M316.0,146.5 L316.0,142.5 L316.0,146.5 Z M664.0,159.5 L664.0,145.5 L664.0,159.5 Z M1026.0,148.5 L1026.0,146.5 L1026.0,148.5 Z M504.0,149.5 L500.5,149.0 L504.0,149.5 Z M626.0,149.5 L622.5,149.0 L626.0,149.5 Z M673.0,159.5 L673.0,151.5 L673.0,159.5 Z M735.0,154.5 L732.5,154.0 L735.0,154.5 Z M761.0,154.5 L758.5,154.0 L761.0,154.5 Z M789.0,154.5 L783.5,154.0 L789.0,154.5 Z M833.0,154.5 L828.5,154.0 L833.0,154.5 Z M1068.0,154.5 L1063.5,154.0 L1068.0,154.5 Z M173.0,156.5 L171.5,156.0 L173.0,156.5 Z M335.0,159.5 L333.5,159.0 L335.0,159.5 Z M392.0,161.5 L390.5,161.0 L392.0,161.5 Z M862.0,168.5 L862.0,163.5 L862.0,168.5 Z M168.0,166.5 L168.0,164.5 L168.0,166.5 Z M165.0,171.5 L165.0,169.5 L165.0,171.5 Z M162.0,175.5 L163.0,172.5 L162.0,175.5 Z M173.5,179.0 L172.0,175.5 L171.5,178.0 L173.5,179.0 Z M145.0,195.5 L142.5,195.0 L157.0,180.5 L156.5,184.0 L145.0,195.5 Z M166.0,185.5 L166.0,183.5 L166.0,185.5 Z M432.0,184.5 L430.5,184.0 L432.0,184.5 Z M189.0,189.5 L187.5,189.0 L189.0,189.5 Z M184.0,190.5 L182.5,190.0 L184.0,190.5 Z M111.0,216.5 L109.5,216.0 L111.0,216.5 Z"/>
<path fill="#768c97" fill-rule="evenodd" d="M13.0,14.5 L12.5,13.0 L14.0,12.5 L13.0,14.5 Z M234.0,27.5 L231.5,27.0 L234.0,27.5 Z M238.0,34.5 L238.0,31.5 L238.0,34.5 Z M220.0,38.5 L218.5,38.0 L220.0,38.5 Z M217.0,39.5 L215.5,39.0 L217.0,39.5 Z M246.0,39.5 L244.5,39.0 L246.0,39.5 Z M241.0,40.5 L239.5,40.0 L241.0,40.5 Z M210.0,41.5 L208.5,41.0 L210.0,41.5 Z M236.0,41.5 L234.5,41.0 L236.0,41.5 Z M232.0,42.5 L230.5,42.0 L232.0,42.5 Z M228.0,43.5 L226.5,43.0 L228.0,43.5 Z M223.0,44.5 L221.5,44.0 L223.0,44.5 Z M219.0,45.5 L217.5,45.0 L219.0,45.5 Z M214.0,46.5 L212.5,46.0 L214.0,46.5 Z M251.0,48.5 L251.0,45.5 L251.0,48.5 Z M187.0,48.5 L185.5,48.0 L187.0,48.5 Z M200.0,49.5 L198.5,49.0 L200.0,49.5 Z M196.0,50.5 L194.5,50.0 L196.0,50.5 Z M191.0,51.5 L189.5,51.0 L191.0,51.5 Z M173.0,52.5 L171.5,52.0 L173.0,52.5 Z M252.0,54.5 L252.0,51.5 L252.0,54.5 Z M182.0,53.5 L180.5,53.0 L182.0,53.5 Z M178.0,54.5 L176.5,54.0 L178.0,54.5 Z M173.0,55.5 L171.5,55.0 L173.0,55.5 Z M168.0,56.5 L166.5,56.0 L168.0,56.5 Z M156.0,58.5 L151.5,58.0 L155.0,56.5 L156.0,58.5 Z M162.0,57.5 L160.5,57.0 L162.0,57.5 Z M253.0,60.5 L253.0,57.5 L253.0,60.5 Z M254.0,66.5 L254.0,63.5 L254.0,66.5 Z M147.0,70.5 L147.0,68.5 L147.0,70.5 Z M255.0,72.5 L255.0,69.5 L255.0,72.5 Z M256.0,78.5 L256.0,76.5 L256.0,78.5 Z M186.0,79.5 L184.5,79.0 L186.0,79.5 Z M149.0,81.5 L149.0,79.5 L149.0,81.5 Z M167.0,82.5 L165.5,82.0 L167.0,82.5 Z M199.0,82.5 L197.5,82.0 L199.0,82.5 Z M305.0,82.5 L301.5,82.0 L305.0,82.5 Z M334.0,82.5 L332.5,82.0 L334.0,82.5 Z M668.0,82.5 L664.5,82.0 L668.0,82.5 Z M690.0,82.5 L688.5,82.0 L690.0,82.5 Z M152.0,85.5 L152.0,82.5 L162.5,83.0 L154.0,83.5 L152.0,85.5 Z M257.0,84.5 L257.0,82.5 L257.0,84.5 Z M150.0,86.5 L150.0,84.5 L150.0,86.5 Z M216.0,87.5 L216.0,85.5 L216.0,87.5 Z M1026.0,89.5 L1026.0,86.5 L1026.0,89.5 Z M211.0,88.5 L209.5,88.0 L211.0,88.5 Z M258.0,91.5 L258.0,88.5 L258.0,91.5 Z M690.0,90.5 L688.5,90.0 L690.0,90.5 Z M1017.0,101.5 L1017.0,89.5 L1017.0,101.5 Z M151.0,92.5 L151.0,90.5 L151.0,92.5 Z M1026.0,103.5 L1026.0,90.5 L1026.0,103.5 Z M673.0,121.5 L673.0,92.5 L673.0,121.5 Z M259.0,97.5 L259.0,95.5 L259.0,97.5 Z M153.0,98.5 L153.0,96.5 L153.0,98.5 Z M709.0,98.5 L709.0,96.5 L709.0,98.5 Z M108.0,99.5 L108.0,97.5 L108.0,99.5 Z M353.0,99.5 L353.0,97.5 L353.0,99.5 Z M664.0,107.5 L664.0,99.5 L664.0,107.5 Z M700.0,102.5 L700.0,100.5 L700.0,102.5 Z M260.0,103.5 L260.0,101.5 L260.0,103.5 Z M393.0,102.5 L385.5,102.0 L393.0,102.5 Z M505.0,102.5 L498.5,102.0 L505.0,102.5 Z M573.0,102.5 L566.5,102.0 L573.0,102.5 Z M618.0,102.5 L616.5,102.0 L618.0,102.5 Z M624.0,102.5 L622.5,102.0 L624.0,102.5 Z M398.0,103.5 L396.5,103.0 L398.0,103.5 Z M548.0,103.5 L538.5,103.0 L548.0,103.5 Z M710.0,107.5 L710.0,102.5 L710.0,107.5 Z M733.0,103.5 L731.5,103.0 L733.0,103.5 Z M742.0,103.5 L740.5,103.0 L742.0,103.5 Z M785.0,103.5 L783.5,103.0 L785.0,103.5 Z M792.0,103.5 L790.5,103.0 L792.0,103.5 Z M831.0,103.5 L828.5,103.0 L831.0,103.5 Z M838.0,103.5 L835.5,103.0 L838.0,103.5 Z M883.0,103.5 L881.5,103.0 L883.0,103.5 Z M890.0,103.5 L888.5,103.0 L890.0,103.5 Z M938.0,103.5 L935.5,103.0 L938.0,103.5 Z M946.0,103.5 L944.5,103.0 L946.0,103.5 Z M998.0,103.5 L995.5,103.0 L998.0,103.5 Z M1002.0,103.5 L1000.5,103.0 L1002.0,103.5 Z M1066.0,103.5 L1063.5,103.0 L1066.0,103.5 Z M1073.0,103.5 L1070.5,103.0 L1073.0,103.5 Z M353.0,105.5 L353.0,103.5 L353.0,105.5 Z M538.0,105.5 L538.0,103.5 L538.0,105.5 Z M728.0,104.5 L726.5,104.0 L728.0,104.5 Z M1016.0,104.5 L1009.5,104.0 L1016.0,104.5 Z M1078.0,104.5 L1076.5,104.0 L1078.0,104.5 Z M870.0,109.5 L870.0,105.5 L870.0,109.5 Z M986.0,111.5 L984.5,111.0 L985.0,105.5 L986.0,111.5 Z M224.0,107.5 L216.5,107.0 L224.0,107.5 Z M261.0,109.5 L261.0,107.5 L261.0,109.5 Z M455.0,109.5 L455.0,107.5 L455.0,109.5 Z M554.0,108.5 L552.5,108.0 L554.0,108.5 Z M700.0,110.5 L700.0,108.5 L700.0,110.5 Z M226.0,110.5 L224.5,110.0 L226.0,110.5 Z M791.0,110.5 L785.5,110.0 L791.0,110.5 Z M836.0,110.5 L830.5,110.0 L836.0,110.5 Z M942.0,110.5 L939.5,110.0 L942.0,110.5 Z M1071.0,110.5 L1065.5,110.0 L1071.0,110.5 Z M216.0,114.5 L216.0,110.5 L216.0,114.5 Z M1016.0,111.5 L1009.5,111.0 L1016.0,111.5 Z M1038.0,111.5 L1026.5,111.0 L1038.0,111.5 Z M210.0,113.5 L210.0,111.5 L210.0,113.5 Z M709.0,113.5 L709.0,111.5 L709.0,113.5 Z M1026.0,146.5 L1026.0,111.5 L1026.0,146.5 Z M262.0,115.5 L262.0,112.5 L262.0,115.5 Z M389.0,113.5 L387.5,113.0 L389.0,113.5 Z M1017.0,148.5 L1017.0,112.5 L1017.0,148.5 Z M219.0,117.5 L219.0,114.5 L219.0,117.5 Z M235.0,115.5 L233.5,115.0 L235.0,115.5 Z M566.0,115.5 L562.5,115.0 L566.0,115.5 Z M588.0,119.5 L588.0,116.5 L588.0,119.5 Z M1049.0,120.5 L1049.0,117.5 L1049.0,120.5 Z M528.0,120.5 L528.0,118.5 L528.0,120.5 Z M213.0,120.5 L210.5,120.0 L213.0,120.5 Z M216.0,120.5 L214.5,120.0 L216.0,120.5 Z M263.0,121.5 L263.0,119.5 L263.0,121.5 Z M398.0,121.5 L398.0,119.5 L398.0,121.5 Z M871.0,122.5 L871.0,119.5 L871.0,122.5 Z M664.0,129.5 L664.0,120.5 L664.0,129.5 Z M207.0,124.5 L207.0,121.5 L207.0,124.5 Z M554.0,159.5 L554.0,121.5 L554.0,159.5 Z M917.0,123.5 L917.0,121.5 L917.0,123.5 Z M955.0,123.5 L955.0,121.5 L955.0,123.5 Z M986.0,159.5 L986.0,121.5 L986.0,159.5 Z M529.0,124.5 L529.0,122.5 L529.0,124.5 Z M598.0,124.5 L598.0,122.5 L598.0,124.5 Z M907.0,126.5 L907.0,122.5 L907.0,126.5 Z M218.0,125.5 L218.0,123.5 L218.0,125.5 Z M614.0,125.5 L614.0,123.5 L614.0,125.5 Z M926.0,126.5 L926.0,123.5 L926.0,126.5 Z M965.0,125.5 L965.0,123.5 L965.0,125.5 Z M197.0,126.5 L197.0,124.5 L197.0,126.5 Z M209.0,130.5 L209.0,124.5 L209.0,130.5 Z M328.0,125.5 L316.5,125.0 L328.0,125.5 Z M363.0,126.5 L363.0,124.5 L363.0,126.5 Z M414.0,134.5 L414.0,124.5 L414.0,134.5 Z M240.0,126.5 L237.5,126.0 L240.0,126.5 Z M244.0,133.5 L244.0,125.5 L244.0,133.5 Z M264.0,128.5 L264.0,125.5 L264.0,128.5 Z M475.0,127.5 L475.0,125.5 L475.0,127.5 Z M491.0,128.5 L491.0,125.5 L491.0,128.5 Z M199.0,128.5 L199.0,126.5 L199.0,128.5 Z M738.0,127.5 L735.5,127.0 L738.0,127.5 Z M226.0,128.5 L224.5,128.0 L226.0,128.5 Z M241.0,128.5 L239.5,128.0 L241.0,128.5 Z M838.0,128.5 L836.5,128.0 L838.0,128.5 Z M916.0,136.5 L916.0,127.5 L916.0,136.5 Z M236.0,129.5 L233.5,129.0 L236.0,129.5 Z M690.0,129.5 L687.5,129.0 L690.0,129.5 Z M956.0,134.5 L956.0,128.5 L956.0,134.5 Z M207.0,131.5 L207.0,129.5 L207.0,131.5 Z M215.0,130.5 L212.5,130.0 L215.0,130.5 Z M229.0,130.5 L227.5,130.0 L229.0,130.5 Z M673.0,131.5 L673.0,129.5 L673.0,131.5 Z M898.0,133.5 L898.0,129.5 L898.0,133.5 Z M178.0,132.5 L178.0,130.5 L178.0,132.5 Z M183.0,132.5 L183.0,130.5 L183.0,132.5 Z M203.0,132.5 L200.5,132.0 L203.0,132.5 Z M219.0,132.5 L217.5,132.0 L219.0,132.5 Z M265.0,134.5 L265.0,131.5 L265.0,134.5 Z M442.0,133.5 L442.0,131.5 L442.0,133.5 Z M871.0,145.5 L871.0,131.5 L871.0,145.5 Z M212.0,133.5 L210.5,133.0 L212.0,133.5 Z M231.0,135.5 L231.0,132.5 L231.0,135.5 Z M745.0,133.5 L740.5,133.0 L745.0,133.5 Z M207.0,134.5 L204.5,134.0 L207.0,134.5 Z M241.0,135.5 L241.0,133.5 L241.0,135.5 Z M356.0,136.5 L356.0,133.5 L356.0,136.5 Z M197.0,136.5 L197.0,134.5 L197.0,136.5 Z M384.0,135.5 L378.5,135.0 L384.0,135.5 Z M491.0,137.5 L491.0,134.5 L491.0,137.5 Z M673.0,151.5 L673.0,135.5 L673.0,151.5 Z M220.0,138.5 L220.0,136.5 L220.0,138.5 Z M363.0,138.5 L363.0,136.5 L363.0,138.5 Z M475.0,138.5 L475.0,136.5 L475.0,138.5 Z M614.0,138.5 L614.0,136.5 L614.0,138.5 Z M379.0,139.5 L379.0,137.5 L379.0,139.5 Z M907.0,140.5 L907.0,137.5 L907.0,140.5 Z M926.0,139.5 L926.0,137.5 L926.0,139.5 Z M965.0,139.5 L965.0,137.5 L965.0,139.5 Z M181.0,140.5 L181.0,138.5 L181.0,140.5 Z M266.0,141.5 L266.0,138.5 L266.0,141.5 Z M529.0,140.5 L529.0,138.5 L529.0,140.5 Z M598.0,140.5 L598.0,138.5 L598.0,140.5 Z M229.0,140.5 L224.5,140.0 L229.0,140.5 Z M356.0,142.5 L356.0,139.5 L356.0,142.5 Z M492.0,141.5 L492.0,139.5 L492.0,141.5 Z M806.0,141.5 L806.0,139.5 L806.0,141.5 Z M955.0,141.5 L955.0,139.5 L955.0,141.5 Z M220.0,141.5 L218.5,141.0 L220.0,141.5 Z M223.0,142.5 L223.0,140.5 L223.0,142.5 Z M234.0,141.5 L232.5,141.0 L234.0,141.5 Z M851.0,147.5 L851.0,140.5 L851.0,147.5 Z M917.0,142.5 L917.0,140.5 L917.0,142.5 Z M1086.0,143.5 L1086.0,140.5 L1086.0,143.5 Z M221.0,144.5 L221.0,142.5 L221.0,144.5 Z M842.0,147.5 L842.0,142.5 L842.0,147.5 Z M599.0,145.5 L599.0,143.5 L599.0,145.5 Z M664.0,145.5 L664.0,143.5 L664.0,145.5 Z M797.0,147.5 L797.0,143.5 L797.0,147.5 Z M1077.0,146.5 L1077.0,143.5 L1077.0,146.5 Z M212.0,145.5 L210.5,145.0 L212.0,145.5 Z M267.0,146.5 L267.0,144.5 L267.0,146.5 Z M1086.0,147.5 L1086.0,144.5 L1086.0,147.5 Z M224.0,147.5 L224.0,145.5 L224.0,147.5 Z M176.0,148.5 L176.0,146.5 L176.0,148.5 Z M806.0,148.5 L806.0,146.5 L806.0,148.5 Z M395.0,149.5 L390.5,149.0 L395.0,149.5 Z M217.0,151.5 L215.5,151.0 L216.0,149.5 L217.0,151.5 Z M175.0,151.5 L173.5,151.0 L175.0,151.5 Z M268.0,153.5 L268.0,150.5 L268.0,153.5 Z M229.0,152.5 L227.5,152.0 L229.0,152.5 Z M225.0,153.5 L223.5,153.0 L225.0,153.5 Z M882.0,153.5 L880.5,153.0 L882.0,153.5 Z M650.0,159.5 L650.0,153.5 L650.0,159.5 Z M762.0,159.5 L762.0,153.5 L762.0,159.5 Z M122.0,156.5 L122.0,154.5 L122.0,156.5 Z M635.0,156.5 L634.0,154.5 L635.5,155.0 L635.0,156.5 Z M269.0,159.5 L269.0,157.5 L269.0,159.5 Z M341.0,158.5 L339.5,158.0 L341.0,158.5 Z M440.0,160.5 L438.0,157.5 L440.5,158.0 L440.0,160.5 Z M648.0,160.5 L645.5,160.0 L648.0,160.5 Z M670.0,160.5 L668.5,160.0 L670.0,160.5 Z M778.0,160.5 L776.5,160.0 L778.0,160.5 Z M823.0,160.5 L821.5,160.0 L823.0,160.5 Z M390.0,161.5 L387.5,161.0 L390.0,161.5 Z M396.0,161.5 L392.5,161.0 L396.0,161.5 Z M506.0,161.5 L498.5,161.0 L506.0,161.5 Z M622.0,161.5 L616.5,161.0 L622.0,161.5 Z M734.0,161.5 L730.5,161.0 L734.0,161.5 Z M788.0,161.5 L781.5,161.0 L788.0,161.5 Z M834.0,161.5 L827.5,161.0 L834.0,161.5 Z M887.0,161.5 L884.5,161.0 L887.0,161.5 Z M943.0,161.5 L937.5,161.0 L943.0,161.5 Z M1032.0,161.5 L1027.5,161.0 L1032.0,161.5 Z M1069.0,161.5 L1063.5,161.0 L1069.0,161.5 Z M270.0,165.5 L270.0,163.5 L270.0,165.5 Z M122.0,167.5 L122.0,165.5 L122.0,167.5 Z M429.0,172.5 L424.5,172.0 L429.0,172.5 Z M421.0,181.5 L421.0,175.5 L421.0,181.5 Z M259.0,177.5 L257.5,177.0 L259.0,177.5 Z M254.0,178.5 L251.5,178.0 L254.0,178.5 Z M248.0,179.5 L246.5,179.0 L248.0,179.5 Z M165.0,181.5 L165.0,179.5 L165.0,181.5 Z M243.0,180.5 L240.5,180.0 L243.0,180.5 Z M237.0,181.5 L235.5,181.0 L237.0,181.5 Z M232.0,182.5 L230.5,182.0 L232.0,182.5 Z M226.0,183.5 L223.5,183.0 L226.0,183.5 Z M220.0,184.5 L217.5,184.0 L220.0,184.5 Z M430.0,184.5 L427.5,184.0 L430.0,184.5 Z M436.0,184.5 L432.5,184.0 L436.0,184.5 Z M214.0,185.5 L212.5,185.0 L214.0,185.5 Z M166.0,188.5 L166.0,185.5 L166.0,188.5 Z M208.0,186.5 L206.5,186.0 L208.0,186.5 Z M202.0,187.5 L200.5,187.0 L202.0,187.5 Z M197.0,188.5 L195.5,188.0 L197.0,188.5 Z M191.0,189.5 L189.5,189.0 L191.0,189.5 Z M186.0,190.5 L184.5,190.0 L186.0,190.5 Z M179.0,191.5 L177.5,191.0 L179.0,191.5 Z M173.0,192.5 L171.5,192.0 L173.0,192.5 Z M88.0,216.5 L86.5,216.0 L88.0,216.5 Z M83.0,217.5 L81.5,217.0 L83.0,217.5 Z M77.0,218.5 L75.5,218.0 L77.0,218.5 Z"/>
</svg>
