<?xml version="1.0" encoding="UTF-8"?>
<!DOCTYPE svg PUBLIC "-//W3C//DTD SVG 1.1//EN" "http://www.w3.org/Graphics/SVG/1.1/DTD/svg11.dtd">
<svg xmlns="http://www.w3.org/2000/svg" version="1.1" width="836px" height="674px" style="shape-rendering:geometricPrecision; text-rendering:geometricPrecision; image-rendering:optimizeQuality; fill-rule:evenodd; clip-rule:evenodd" xmlns:xlink="http://www.w3.org/1999/xlink">
<g><path style="opacity:1" fill="#ffffff" d="M -0.5,-0.5 C 0.166667,-0.5 0.833333,-0.5 1.5,-0.5C 13.9217,16.09 28.2551,30.9233 44.5,44C 65.0492,58.881 86.3825,72.5476 108.5,85C 132.925,97.2127 157.591,108.879 182.5,120C 226.283,138.391 269.949,157.058 313.5,176C 343.557,189.68 370.89,207.347 395.5,229C 415.079,248.319 428.912,271.152 437,297.5C 446.029,284.637 454.862,271.637 463.5,258.5C 458.842,254.675 454.676,250.342 451,245.5C 449.667,243.5 448.333,241.5 447,239.5C 446.251,238.365 446.417,237.365 447.5,236.5C 463.91,241.721 480.244,241.221 496.5,235C 509.674,229.275 523.007,223.942 536.5,219C 546.007,215.513 555.673,214.846 565.5,217C 570.306,219.497 574.806,222.331 579,225.5C 589.606,222.111 600.439,220.944 611.5,222C 616.124,223.31 620.124,225.644 623.5,229C 610.732,231.554 599.065,236.554 588.5,244C 566.226,262.029 551.06,284.863 543,312.5C 535.359,347.398 525.692,381.731 514,415.5C 500.635,451.579 481.635,484.246 457,513.5C 396.291,582.474 321.125,627.974 231.5,650C 217.449,653.522 203.449,656.355 189.5,658.5C 189.919,657.328 190.585,656.328 191.5,655.5C 234.437,631.42 272.937,601.42 307,565.5C 328.408,542.355 342.741,515.355 350,484.5C 353.705,460.288 347.372,439.288 331,421.5C 316.463,408.012 299.63,398.179 280.5,392C 247.494,382.664 214.827,372.331 182.5,361C 148.45,347.904 120.617,326.738 99,297.5C 93.6342,288.882 89.1342,279.882 85.5,270.5C 85.8333,270.167 86.1667,269.833 86.5,269.5C 113.018,286.851 141.684,299.684 172.5,308C 205.575,315.346 238.575,323.012 271.5,331C 285.211,336.564 298.878,341.897 312.5,347C 307.072,341.569 301.072,336.902 294.5,333C 286.676,329.255 279.009,325.255 271.5,321C 231.477,306.33 191.477,291.663 151.5,277C 115.366,262.514 84.5324,240.681 59,211.5C 44.1567,190.811 33.3234,168.145 26.5,143.5C 27.0016,142.479 27.6683,142.312 28.5,143C 39.4255,152.801 50.7588,162.134 62.5,171C 92.2503,189.208 123.584,204.208 156.5,216C 192.098,227.199 227.431,239.199 262.5,252C 277.983,258.579 292.649,265.746 306.5,273.5C 295.649,262.075 283.315,252.575 269.5,245C 239.473,229.443 208.806,215.443 177.5,203C 140.929,187.55 106.596,168.217 74.5,145C 30.8498,110.53 5.84983,65.6967 -0.5,10.5C -0.5,6.83333 -0.5,3.16667 -0.5,-0.5 Z"/></g>
<g><path style="opacity:1" fill="#ffffff" d="M 692.5,46.5 C 707.438,48.6099 715.271,57.2766 716,72.5C 716.913,76.3616 716.58,80.0283 715,83.5C 714,82.8333 713,82.1667 712,81.5C 709.542,76.7471 706.708,72.2471 703.5,68C 701.5,67.3333 699.5,67.3333 697.5,68C 635.703,87.5985 573.703,106.599 511.5,125C 496.724,129.694 482.058,134.694 467.5,140C 557.553,122.423 647.553,104.256 737.5,85.5C 749.145,87.1062 755.645,93.7728 757,105.5C 777.479,234.708 799.146,363.708 822,492.5C 823.342,508.315 816.175,517.481 800.5,520C 705.826,537.668 611.159,555.334 516.5,573C 504.651,575.826 496.484,571.66 492,560.5C 490.415,548.157 488.749,535.824 487,523.5C 486.333,519.167 486.333,514.833 487,510.5C 504.244,483.011 518.577,454.011 530,423.5C 541.483,383.906 552.816,344.239 564,304.5C 571.086,287.766 580.919,272.933 593.5,260C 602.167,253.329 611.501,247.662 621.5,243C 629.386,240.432 637.386,239.932 645.5,241.5C 640.905,219.239 627.239,207.906 604.5,207.5C 597.803,207.367 591.303,208.367 585,210.5C 580.31,207.566 575.477,204.733 570.5,202C 561.597,199.175 552.597,198.842 543.5,201C 527.453,206.015 511.787,212.015 496.5,219C 478.335,225.37 460.002,226.036 441.5,221C 436.502,219.875 433.669,216.708 433,211.5C 430.002,196.509 427.002,181.509 424,166.5C 421.794,154.41 426.294,145.91 437.5,141C 522.38,108.881 607.38,77.3811 692.5,46.5 Z M 653.5,300.5 C 698.558,300.748 725.725,322.748 735,366.5C 737.564,399.192 725.397,424.692 698.5,443C 680.348,453.344 661.014,456.344 640.5,452C 606.042,442.538 586.542,420.038 582,384.5C 580.636,345.886 597.803,319.386 633.5,305C 640.163,302.831 646.829,301.331 653.5,300.5 Z"/></g>
<g><path style="opacity:1" fill="#ffffff" d="M 652.5,310.5 C 662.92,315.068 670.92,322.401 676.5,332.5C 673.497,335.673 669.83,337.839 665.5,339C 662.634,340.276 659.8,340.443 657,339.5C 654.258,329.857 652.758,320.19 652.5,310.5 Z"/></g>
<g><path style="opacity:1" fill="#ffffff" d="M 670.5,311.5 C 679.707,312.299 688.373,315.466 696.5,321C 693.265,324.941 689.265,327.275 684.5,328C 680.344,322.015 675.677,316.515 670.5,311.5 Z"/></g>
<g><path style="opacity:1" fill="#ffffff" d="M 640.5,313.5 C 641.496,313.414 642.329,313.748 643,314.5C 644.389,323.28 646.222,331.946 648.5,340.5C 648.291,341.086 647.957,341.586 647.5,342C 639.958,344.313 632.625,343.98 625.5,341C 628.317,332.866 631.817,325.033 636,317.5C 637.397,315.93 638.897,314.596 640.5,313.5 Z"/></g>
<g><path style="opacity:1" fill="#ffffff" d="M 624.5,317.5 C 625.376,317.369 626.043,317.702 626.5,318.5C 622.784,325.151 619.95,332.151 618,339.5C 617.196,340.804 616.029,341.471 614.5,341.5C 611.218,340.512 607.885,339.846 604.5,339.5C 604.343,338.127 604.51,336.793 605,335.5C 611.096,328.898 617.596,322.898 624.5,317.5 Z"/></g>
<g><path style="opacity:1" fill="#ffffff" d="M 703.5,326.5 C 709.866,330.37 714.699,335.703 718,342.5C 721.671,348.346 723.837,354.68 724.5,361.5C 716.21,363.091 707.876,364.425 699.5,365.5C 697.255,355.931 693.922,346.764 689.5,338C 694.421,334.387 699.088,330.554 703.5,326.5 Z"/></g>
<g><path style="opacity:1" fill="#ffffff" d="M 678.5,341.5 C 680.592,341.561 682.092,342.561 683,344.5C 685.994,351.316 688.494,358.316 690.5,365.5C 690.182,366.647 689.516,367.481 688.5,368C 679.929,370.097 671.262,371.097 662.5,371C 659.818,364.102 658.485,356.935 658.5,349.5C 665.47,347.403 672.136,344.737 678.5,341.5 Z"/></g>
<g><path style="opacity:1" fill="#ffffff" d="M 597.5,346.5 C 603.741,347.603 609.908,348.936 616,350.5C 615.293,360.045 615.46,369.545 616.5,379C 615.833,379.667 615.167,380.333 614.5,381C 606.547,382.825 598.547,384.325 590.5,385.5C 588.767,371.694 591.101,358.694 597.5,346.5 Z"/></g>
<g><path style="opacity:1" fill="#ffffff" d="M 644.5,350.5 C 646.39,350.297 647.89,350.963 649,352.5C 651.422,359.422 652.589,366.422 652.5,373.5C 643.336,376.124 634.003,377.791 624.5,378.5C 623.08,369.789 623.246,361.123 625,352.5C 631.599,351.85 638.099,351.184 644.5,350.5 Z"/></g>
<g><path style="opacity:1" fill="#ffffff" d="M 717.5,370.5 C 720.5,370.5 723.5,370.5 726.5,370.5C 727.502,383.49 725.169,395.824 719.5,407.5C 713.517,407.886 707.683,406.886 702,404.5C 701.807,395.119 701.307,385.786 700.5,376.5C 700.977,375.522 701.643,374.689 702.5,374C 707.702,373.131 712.702,371.964 717.5,370.5 Z"/></g>
<g><path style="opacity:1" fill="#ffffff" d="M 684.5,376.5 C 687.119,376.232 689.619,376.565 692,377.5C 692.667,385.833 692.667,394.167 692,402.5C 683.954,402.466 675.787,402.633 667.5,403C 666.095,396.542 664.762,390.042 663.5,383.5C 663.833,382.833 664.167,382.167 664.5,381.5C 671.272,379.817 677.938,378.151 684.5,376.5 Z"/></g>
<g><path style="opacity:1" fill="#ffffff" d="M 650.5,382.5 C 652.451,382.227 653.951,382.893 655,384.5C 656.765,390.756 657.765,397.09 658,403.5C 650.636,406.789 643.136,409.789 635.5,412.5C 630.334,405.005 627.334,396.671 626.5,387.5C 634.725,386.323 642.725,384.656 650.5,382.5 Z"/></g>
<g><path style="opacity:1" fill="#ffffff" d="M 614.5,389.5 C 615.822,389.33 616.989,389.663 618,390.5C 620.343,399.031 623.177,407.364 626.5,415.5C 626.167,416.5 625.833,417.5 625.5,418.5C 621.189,420.985 617.022,423.652 613,426.5C 603.106,418.568 596.273,408.402 592.5,396C 592.905,395.055 593.572,394.388 594.5,394C 601.422,393.052 608.088,391.552 614.5,389.5 Z"/></g>
<g><path style="opacity:1" fill="#ffffff" d="M 669.5,411.5 C 676.175,411.334 682.842,411.5 689.5,412C 690.022,412.561 690.355,413.228 690.5,414C 688.584,422.333 685.417,430.166 681,437.5C 679.292,439.543 677.292,441.21 675,442.5C 671.451,432.543 669.618,422.21 669.5,411.5 Z"/></g>
<g><path style="opacity:1" fill="#ffffff" d="M 700.5,412.5 C 704.956,413.689 709.289,415.189 713.5,417C 707.654,424.512 700.821,431.012 693,436.5C 692.5,436 692,435.5 691.5,435C 695.188,427.767 698.188,420.267 700.5,412.5 Z"/></g>
<g><path style="opacity:1" fill="#ffffff" d="M 655.5,413.5 C 657.451,413.227 658.951,413.893 660,415.5C 662.157,424.775 663.99,434.108 665.5,443.5C 660.515,443.382 656.182,441.549 652.5,438C 647.979,432.98 643.645,427.813 639.5,422.5C 639.977,421.522 640.643,420.689 641.5,420C 646.227,417.715 650.893,415.548 655.5,413.5 Z"/></g>
<g><path style="opacity:1" fill="#ffffff" d="M 628.5,425.5 C 629.552,425.351 630.552,425.517 631.5,426C 635.594,432.045 640.26,437.545 645.5,442.5C 643.926,443.631 642.259,443.798 640.5,443C 632.98,440.9 626.314,437.4 620.5,432.5C 623.239,430.149 625.905,427.816 628.5,425.5 Z"/></g>
<g><path style="opacity:1" fill="#ffffff" d="M 478.5,509.5 C 479.097,509.735 479.43,510.235 479.5,511C 468.441,545.046 449.107,573.379 421.5,596C 384.711,623.892 343.711,642.892 298.5,653C 318.468,641.681 338.468,630.347 358.5,619C 395.203,596.311 428.37,569.144 458,537.5C 465.087,528.315 471.92,518.981 478.5,509.5 Z"/></g>
</svg>
