<svg xmlns="http://www.w3.org/2000/svg" viewBox="0 0 120 96" role="img" aria-label="Beyond Passports">
  <!-- wing: three swept blades -->
  <path d="M64 58 Q34 48 6 22 Q30 46 60 50 Z" fill="#155E7A"/>
  <path d="M66 62 Q40 56 12 38 Q36 56 64 56 Z" fill="#16222e"/>
  <path d="M68 66 Q46 64 22 54 Q44 64 66 62 Z" fill="#155E7A" opacity="0.9"/>
  <!-- passport book + globe -->
  <g transform="rotate(-7 86 56)">
    <rect x="72" y="30" width="40" height="52" rx="6" fill="#16222e"/>
    <rect x="72" y="30" width="7" height="52" rx="3" fill="#16222e" opacity="0.55"/>
    <circle cx="94" cy="50" r="11" fill="none" stroke="#155E7A" stroke-width="2.4"/>
    <path d="M94 39 v22 M83.5 50 h21" stroke="#155E7A" stroke-width="1.6"/>
    <path d="M94 39 Q86 50 94 61 M94 39 Q102 50 94 61" stroke="#155E7A" stroke-width="1.6" fill="none"/>
    <circle cx="94" cy="50" r="2.4" fill="#5C9A7B"/>
    <rect x="84" y="70" width="20" height="2.6" rx="1.3" fill="#155E7A" opacity="0.7"/>
  </g>
</svg>
